<?xml version="1.0" encoding="utf-8"?>
<!-- Generator: Adobe Illustrator 26.0.1, SVG Export Plug-In . SVG Version: 6.00 Build 0)  -->
<svg version="1.1" id="Capa_1" xmlns="http://www.w3.org/2000/svg" xmlns:xlink="http://www.w3.org/1999/xlink" x="0px" y="0px"
	 viewBox="0 0 340 220" style="enable-background:new 0 0 340 220;" xml:space="preserve">
<style type="text/css">
	.st0{fill:#DF252C;}
	.st1{fill:#297BB9;}
	.st2{fill:#FEFBFB;}
</style>
<g>
	<path class="st0" d="M103.23,112.04c0.31-38.56,31.16-68.23,67.89-67.56c36.72,0.67,66.55,29.48,66.19,67.73
		c-0.37,39.2-30.75,67.87-68.61,67C131.14,178.34,103.93,148.74,103.23,112.04z M230.73,112.03c0.11-33.26-27.03-60.77-60.11-60.93
		c-33.1-0.16-60.48,27.06-60.59,60.44c-0.11,33.32,26.75,60.64,59.89,60.83C203.44,172.56,230.62,145.52,230.73,112.03z"/>
	<path class="st1" d="M230.73,112.03c-0.11,33.5-27.29,60.54-60.81,60.34c-33.14-0.19-60-27.51-59.89-60.83
		c0.11-33.38,27.49-60.6,60.59-60.44C203.7,51.26,230.84,78.76,230.73,112.03z M161.98,126.59c0-4.59,0.03-9.19-0.01-13.78
		c-0.02-2.49-0.34-4.94-1.54-7.2c-2.88-5.41-7.93-6.59-13.36-6.35c-5.84,0.25-11.61,0.98-14.47,7.41c-2.15,4.84-1.56,5.89,3.72,5.88
		c0.37,0,0.74-0.03,1.1,0.01c1.83,0.21,2.79-0.53,3.41-2.36c1.11-3.26,3.98-4.73,7.45-4.2c3.25,0.5,5.06,2.74,5.19,6.43
		c0.04,1.19-0.04,2.39,0.04,3.58c0.12,1.69-0.41,2.53-2.3,2.54c-3.97,0.02-7.82,0.91-11.6,2.1c-9.61,3.02-12.88,14.03-6.13,20.71
		c4.46,4.42,12.98,4.34,17.82-0.15c0.51-0.47,0.89-1.36,1.77-1c0.8,0.33,0.33,1.11,0.31,1.71c-0.05,1.3,0.7,1.82,1.87,1.86
		c1.28,0.04,2.58-0.05,3.86,0.04c2.16,0.16,2.95-0.79,2.91-2.91C161.93,136.15,161.99,131.37,161.98,126.59z M172.01,76.08
		c-7.29-0.02-12.67,0.56-17.94,1.89c-8.66,2.18-16.65,5.74-23.36,11.79c-1.64,1.48-2.23,3.19-0.67,5.07
		c1.51,1.82,3.25,1.83,5.06,0.37c6.82-5.47,14.41-9.39,23.06-10.95c9.9-1.78,19.68-1.42,29.4,1.54c7.77,2.37,14.16,6.81,20.15,12.04
		c0.54,0.47,1.07,1.21,1.88,0.82c0.9-0.43,0.43-1.29,0.3-1.96c-1.64-8.65-3.28-17.31-4.97-25.95c-0.55-2.81-2.18-4-4.59-3.5
		c-2.8,0.58-2.64,2.7-2.32,4.75c0.45,2.9,1.08,5.77,1.61,8.66c0.13,0.69,0.7,1.48-0.02,2.05c-0.69,0.55-1.38-0.03-2.03-0.35
		C188.93,78.11,179.73,76.29,172.01,76.08z M177.1,144.53c0.73,0,1.47,0.05,2.2-0.01c2.95-0.22,5.85-0.66,8.46-2.17
		c7.51-4.36,8.09-15.27,0.94-20.45c-3.78-2.74-7.91-4.99-11.85-7.52c-1.52-0.97-2.83-2.29-2.58-4.24c0.26-2.03,1.79-3.06,3.67-3.68
		c3.15-1.04,6.18-0.38,9.19,0.52c3.84,1.15,3.82,1.19,3.85-3.04c0.01-1.46,0.33-3.09-1.67-3.56c-5.05-1.19-10.15-1.87-15.2-0.12
		c-3.92,1.35-6.93,3.74-7.97,8.02c-1.28,5.24,0.34,9.48,4.65,12.55c3.88,2.76,8,5.18,11.95,7.86c1.67,1.13,2.77,2.72,2.28,4.93
		c-0.5,2.28-2.16,3.3-4.27,3.77c-4.06,0.9-8.02,0.38-11.91-0.94c-0.93-0.32-1.92-0.98-2.8-0.06c-1.36,1.4-0.07,6.45,1.81,7.04
		C170.85,144.37,173.99,144.43,177.1,144.53z M115.25,99.05c0.05,0.49,0.11,1.4,0.27,2.3c0.23,1.32,0.83,2.73,2.11,2.98
		c1.47,0.28,2.02-1.27,2.63-2.37c0.35-0.64,0.62-1.33,0.86-2.02c3.26-9.29,8.02-17.69,15.28-24.43c6.05-5.63,13.03-9.9,20.65-13.13
		c1.49-0.63,3.69-1.44,3.17-3.21c-0.54-1.81-2.91-1.44-4.6-1.35c-7.38,0.4-13.7,3.65-19.66,7.66c-7.2,4.85-12.19,11.73-16.52,19.04
		C116.91,88.78,115.43,93.56,115.25,99.05z M196.7,121.84c0.07,0,0.13,0,0.2,0c0,6.15,0.16,12.31-0.08,18.46
		c-0.1,2.62,0.63,3.61,3.19,3.28c0.63-0.08,1.29-0.09,1.93-0.01c2.54,0.34,3.34-0.71,3.32-3.26c-0.09-11.66-0.02-23.33,0.02-34.99
		c0.02-5.73,0.27-4.99-5.24-5.2c-2.81-0.11-3.43,1.03-3.38,3.56C196.79,109.74,196.7,115.79,196.7,121.84z"/>
	<path class="st2" d="M161.99,126.59c0,4.78-0.06,9.55,0.03,14.33c0.04,2.12-0.75,3.08-2.91,2.91c-1.28-0.1-2.57,0-3.86-0.04
		c-1.17-0.04-1.92-0.56-1.87-1.86c0.02-0.6,0.49-1.38-0.31-1.71c-0.88-0.36-1.26,0.53-1.77,1c-4.85,4.49-13.36,4.57-17.82,0.15
		c-6.75-6.68-3.48-17.69,6.13-20.71c3.79-1.19,7.63-2.08,11.6-2.1c1.88-0.01,2.41-0.84,2.3-2.54c-0.08-1.19,0-2.39-0.04-3.58
		c-0.13-3.7-1.94-5.93-5.19-6.43c-3.47-0.53-6.34,0.94-7.45,4.2c-0.62,1.83-1.58,2.56-3.41,2.36c-0.36-0.04-0.73-0.01-1.1-0.01
		c-5.28,0.02-5.87-1.04-3.72-5.88c2.85-6.43,8.63-7.16,14.47-7.41c5.43-0.24,10.47,0.94,13.36,6.35c1.2,2.25,1.52,4.7,1.54,7.2
		C162.01,117.41,161.98,122,161.99,126.59z M150.87,124.34c-3.35,0.48-7,0.98-9.66,3.96c-2.03,2.28-2.27,5.65-0.57,7.85
		c1.55,2,4.48,2.35,7.23,0.58c3.75-2.41,5.47-6.04,5.61-10.45C153.53,124.72,152.61,124.19,150.87,124.34z"/>
	<path class="st2" d="M172.01,76.08c7.72,0.21,16.92,2.03,25.57,6.28c0.65,0.32,1.34,0.9,2.03,0.35c0.72-0.57,0.14-1.36,0.02-2.05
		c-0.54-2.89-1.16-5.76-1.61-8.66c-0.32-2.05-0.47-4.17,2.32-4.75c2.41-0.5,4.04,0.69,4.59,3.5c1.69,8.64,3.33,17.3,4.97,25.95
		c0.13,0.67,0.6,1.53-0.3,1.96c-0.81,0.39-1.34-0.35-1.88-0.82c-5.99-5.23-12.38-9.68-20.15-12.04c-9.72-2.96-19.5-3.32-29.4-1.54
		c-8.66,1.55-16.24,5.48-23.06,10.95c-1.81,1.45-3.55,1.45-5.06-0.37c-1.56-1.88-0.97-3.59,0.67-5.07
		c6.71-6.06,14.7-9.61,23.36-11.79C159.34,76.64,164.72,76.06,172.01,76.08z"/>
	<path class="st2" d="M177.1,144.53c-3.12-0.11-6.25-0.17-9.26-1.11c-1.88-0.59-3.17-5.63-1.81-7.04c0.89-0.92,1.87-0.26,2.8,0.06
		c3.89,1.33,7.85,1.85,11.91,0.94c2.11-0.47,3.77-1.48,4.27-3.77c0.48-2.21-0.61-3.8-2.28-4.93c-3.94-2.68-8.07-5.1-11.95-7.86
		c-4.31-3.07-5.93-7.31-4.65-12.55c1.05-4.28,4.06-6.67,7.97-8.02c5.05-1.74,10.15-1.07,15.2,0.12c2,0.47,1.67,2.1,1.67,3.56
		c-0.03,4.23-0.01,4.19-3.85,3.04c-3.01-0.9-6.04-1.56-9.19-0.52c-1.88,0.62-3.41,1.65-3.67,3.68c-0.25,1.95,1.06,3.27,2.58,4.24
		c3.94,2.53,8.07,4.78,11.85,7.52c7.15,5.18,6.56,16.08-0.94,20.45c-2.6,1.51-5.51,1.95-8.46,2.17
		C178.58,144.58,177.84,144.53,177.1,144.53z"/>
	<path class="st2" d="M115.25,99.05c0.18-5.49,1.66-10.27,4.18-14.53c4.33-7.31,9.31-14.19,16.52-19.04
		c5.96-4.02,12.28-7.26,19.66-7.66c1.7-0.09,4.07-0.47,4.6,1.35c0.53,1.77-1.68,2.58-3.17,3.21c-7.62,3.23-14.6,7.51-20.65,13.13
		c-7.25,6.75-12.01,15.14-15.28,24.43c-0.24,0.69-0.5,1.38-0.86,2.02c-0.61,1.09-1.16,2.65-2.63,2.37
		c-1.29-0.25-1.88-1.66-2.11-2.98C115.36,100.46,115.3,99.54,115.25,99.05z"/>
	<path class="st2" d="M196.7,121.84c0-6.05,0.09-12.11-0.04-18.16c-0.05-2.52,0.57-3.67,3.38-3.56c5.51,0.21,5.26-0.53,5.24,5.2
		c-0.04,11.66-0.11,23.33-0.02,34.99c0.02,2.55-0.78,3.6-3.32,3.26c-0.63-0.09-1.29-0.07-1.93,0.01c-2.56,0.32-3.29-0.67-3.19-3.28
		c0.24-6.14,0.08-12.3,0.08-18.46C196.84,121.84,196.77,121.84,196.7,121.84z"/>
	<path class="st1" d="M150.87,124.34c1.74-0.15,2.66,0.38,2.61,1.95c-0.14,4.41-1.86,8.03-5.61,10.45
		c-2.75,1.77-5.69,1.42-7.23-0.58c-1.71-2.2-1.47-5.57,0.57-7.85C143.86,125.31,147.52,124.82,150.87,124.34z"/>
</g>
</svg>
