<?xml version="1.0" encoding="utf-8"?>
<!-- Generator: Adobe Illustrator 26.0.1, SVG Export Plug-In . SVG Version: 6.00 Build 0)  -->
<svg version="1.1" id="Capa_1" xmlns="http://www.w3.org/2000/svg" xmlns:xlink="http://www.w3.org/1999/xlink" x="0px" y="0px"
	 viewBox="0 0 340 220" style="enable-background:new 0 0 340 220;" xml:space="preserve">
<style type="text/css">
	.st0{fill:#D5272F;}
	.st1{fill:#0A0A0A;}
	.st2{fill:#FCFCFC;}
</style>
<g>
	<path class="st0" d="M119.23,143.3c24.24-12.11,45.14-3.96,64.92,10.69c5.28,3.91,5.62,8.2,1.53,14.67
		c-3.2,5.06-7.55,3.62-11.64,1.67c-8.33-3.96-16.35-8.6-24.81-12.24c-20.66-8.88-36.83-4.45-50.49,13.33
		c-0.89,1.16-1.59,2.48-2.54,3.58c-1.99,2.3-2.79,7.6-6.86,5.47c-4.37-2.29-1.84-6.69-0.22-10.04
		c9.83-20.35,20.39-40.31,31.53-59.98c2.31-4.08,4.73-7.87,1.1-12.63c-1.7-2.23-0.55-4.86,1.32-6.84
		c9.67-10.23,17.48-21.96,26.48-32.72c3.63-4.34,7.71-8.2,12.74-11.07c3.69-2.11,6.79-1.53,9.83,0.9c3.01,2.41,3.37,5.54,2.36,9.08
		c-1.65,5.76-4.97,10.52-8.59,15.18c-17.34,22.35-34.2,45.03-48.06,69.76c-0.36,0.6-0.73,1.19-1.09,1.79
		C117.76,144.49,118.57,144.2,119.23,143.3z"/>
	<path class="st1" d="M81.53,99.62c0.52-4.41,1.2-7.26,1.13-10.1c-0.14-6,3.31-6.66,8.13-6.31c3.41,0.25,4.15,1.56,3.71,4.81
		c-1.82,13.48-3.36,27-5.06,40.49c-0.28,2.18-0.05,5.22-3.23,5.23c-2.61,0-6.22,1.86-7.65-2.14c-0.91-2.55-1.79-1.23-3.08-0.48
		c-11.71,6.72-23.71,0.1-24.35-13.39c-0.42-8.94,6.92-19.68,15.45-22.5C71.95,93.45,76.96,93.49,81.53,99.62z M80.69,113.42
		c0.15-4.67-3.39-8.62-7.91-8.83c-5.16-0.24-10.01,4.73-10.33,10.57c-0.27,4.97,3.03,8.71,7.7,8.73
		C75.44,123.9,80.51,118.87,80.69,113.42z"/>
	<path class="st1" d="M176.03,127.81c-5.64,6.13-11.03,8.25-17.42,5.21c-6.47-3.08-7.82-8.9-7.19-15.34
		c0.62-6.45,1.57-12.87,2.34-19.3c0.73-6.07,5.42-3.04,8.38-3.41c3.91-0.49,2.83,2.47,2.55,4.69c-0.64,5.19-1.16,10.39-1.87,15.57
		c-0.56,4.09,0.52,7.47,4.9,7.97c4.24,0.48,7.24-2.08,7.97-6.33c0.99-5.76,1.87-11.58,2.26-17.41c0.46-6.87,5.49-4.32,8.9-4.46
		c4.4-0.19,2.75,3.27,2.49,5.46c-1.06,9.14-2.3,18.25-3.46,27.38c-0.33,2.62,0.18,5.73-3.85,6.03
		C178.5,134.14,175.51,133.72,176.03,127.81z"/>
	<path class="st1" d="M253.42,116.61c0.25-12.25,10.92-22.66,22.76-22.22c9.7,0.36,16.7,7.85,16.6,17.75
		c-0.13,12.29-10.55,22.72-22.48,22.49C260.26,134.44,253.21,126.92,253.42,116.61z M271.56,124.09c5.88-0.2,10.36-5.49,9.94-11.37
		c-0.33-4.7-2.45-7.95-7.81-7.76c-5.24,0.19-9.68,5.45-9.36,11.3C264.6,121.12,267.13,123.92,271.56,124.09z"/>
	<path class="st1" d="M202.36,134.58c-3.41-0.04-6.8-0.39-9.54-2.61c-2.09-1.69-5.8-3.26-3.18-6.72c2.03-2.67,4.52-6.78,8.82-2.15
		c0.78,0.84,2.2,1.32,3.39,1.49c2.14,0.3,4.64,0.09,5.31-2.23c0.73-2.48-1.81-2.88-3.54-3.46c-5.82-1.96-11.2-4.37-11.02-11.8
		c0.15-6.18,3.42-10.17,9.23-12.09c6.59-2.18,13.36-0.54,16.81,3.77c1.08,1.35,1.78,2.61,0.03,3.58c-2.28,1.27-3.41,5.23-7.17,3.22
		c-1.09-0.58-2.13-1.39-3.3-1.68c-1.67-0.4-3.75-0.39-4.24,1.59c-0.44,1.78,1.49,2.15,2.86,2.6c0.4,0.13,0.79,0.3,1.18,0.44
		c9.56,3.58,12.1,6.94,10.72,14.22C217.38,129.93,211.04,134.51,202.36,134.58z"/>
	<path class="st1" d="M233.46,134.65c-2.98-0.06-5.95-0.4-8.44-2.1c-2.42-1.66-6.33-3.36-4.07-6.98c1.83-2.92,4.62-7.17,9.18-2.26
		c1.24,1.33,3.32,1.84,5.29,1.37c1.4-0.33,3.06-0.68,3.39-2.38c0.37-1.89-1.27-2.43-2.6-2.99c-1.35-0.57-2.77-0.95-4.14-1.48
		c-4.92-1.91-8.17-5.1-7.98-10.75c0.2-5.89,3.24-9.85,8.69-11.84c4.26-1.56,8.74-1.86,12.87,0.27c2.43,1.25,6.54,3.06,5.07,5.88
		c-1.35,2.59-4.21,7.38-9.28,3.22c-1.8-1.47-4.98-1.76-5.94,0.89c-0.87,2.43,2.24,2.41,3.8,3c9.79,3.72,12.35,7.11,10.89,14.73
		C248.88,130.04,242.02,134.72,233.46,134.65z"/>
	<path class="st1" d="M99.91,133.72c-5.35,1.03-6.54-0.92-5.72-5.82c1.54-9.28,2.69-18.65,3.48-28.02c0.54-6.42,4.95-4.99,8.67-4.91
		c4.62,0.1,3.08,3.42,2.78,5.97c-1.09,9.14-2.24,18.28-3.31,27.42C105.37,132.12,104.47,135.21,99.91,133.72z"/>
	<path class="st1" d="M105.02,90.35c-3.38-0.24-6.05,0.57-5.65-3.82c0.44-4.81,1.26-8.22,7.27-7.19c2.41,0.41,5.21-0.47,4.83,3.74
		C111.04,87.82,110.19,91.61,105.02,90.35z"/>
	<path class="st2" d="M119.23,143.3c-0.66,0.9-1.48,1.19-2.5,0.6c0.36-0.6,0.73-1.19,1.09-1.79
		C118.29,142.51,118.76,142.9,119.23,143.3z"/>
</g>
</svg>
