<?xml version="1.0" encoding="utf-8"?>
<!-- Generator: Adobe Illustrator 25.4.1, SVG Export Plug-In . SVG Version: 6.00 Build 0)  -->
<svg version="1.1" id="Capa_1" xmlns="http://www.w3.org/2000/svg" xmlns:xlink="http://www.w3.org/1999/xlink" x="0px" y="0px"
	 viewBox="0 0 314 70" style="enable-background:new 0 0 314 70;" xml:space="preserve">
<g>
	<g>
		<path d="M165.15,31.84h2.16c0,0.03,0.01,0.06,0.01,0.09c0,0.03,0,0.09,0,0.15c0,0.74-0.2,1.33-0.61,1.79
			c-0.41,0.46-0.93,0.68-1.57,0.68c-0.73,0-1.34-0.24-1.82-0.73c-0.48-0.49-0.71-1.1-0.71-1.85c0-0.74,0.24-1.36,0.72-1.84
			c0.48-0.49,1.08-0.73,1.81-0.73c0.39,0,0.74,0.08,1.06,0.25c0.32,0.17,0.61,0.42,0.86,0.75l-0.68,0.52
			c-0.17-0.22-0.35-0.38-0.54-0.47c-0.19-0.1-0.4-0.15-0.65-0.15c-0.47,0-0.84,0.15-1.12,0.45c-0.28,0.3-0.42,0.71-0.42,1.21
			c0,0.5,0.14,0.9,0.42,1.2c0.28,0.31,0.65,0.46,1.1,0.46c0.33,0,0.6-0.08,0.81-0.24c0.21-0.16,0.31-0.37,0.31-0.64V32.7h-1.14
			V31.84z"/>
		<path d="M172.08,34.43h-1.17l-1.24-2.3v2.3h-1.01v-4.91h1.45c0.58,0,1.01,0.12,1.29,0.35c0.29,0.23,0.43,0.58,0.43,1.05
			c0,0.34-0.1,0.63-0.29,0.87c-0.2,0.24-0.45,0.38-0.76,0.42L172.08,34.43z M169.67,31.61h0.15c0.41,0,0.68-0.05,0.81-0.14
			c0.13-0.09,0.2-0.25,0.2-0.48c0-0.24-0.07-0.41-0.21-0.52c-0.14-0.1-0.41-0.15-0.8-0.15h-0.15V31.61z"/>
		<path d="M177.28,29.52v3.06c0,0.67-0.17,1.16-0.51,1.49c-0.34,0.33-0.85,0.49-1.53,0.49c-0.69,0-1.21-0.16-1.55-0.49
			c-0.34-0.33-0.51-0.83-0.51-1.49v-3.06h1.01v2.89c0,0.41,0.09,0.71,0.26,0.91c0.17,0.2,0.43,0.31,0.77,0.31
			c0.34,0,0.61-0.1,0.78-0.31c0.18-0.21,0.27-0.51,0.27-0.91v-2.89H177.28z"/>
		<path d="M178.86,34.43v-4.91h1.16c0.62,0,1.08,0.12,1.38,0.37c0.3,0.25,0.44,0.63,0.44,1.14c0,0.48-0.15,0.85-0.45,1.12
			c-0.3,0.27-0.71,0.41-1.24,0.41h-0.28v1.88H178.86z M179.88,31.73h0.15c0.28,0,0.48-0.06,0.6-0.18c0.12-0.12,0.19-0.31,0.19-0.57
			c0-0.24-0.06-0.42-0.19-0.53c-0.13-0.11-0.33-0.17-0.6-0.17h-0.15V31.73z"/>
		<path d="M187.92,31.98c0,0.35-0.06,0.68-0.19,1c-0.13,0.31-0.31,0.59-0.54,0.83c-0.25,0.24-0.52,0.43-0.83,0.56
			c-0.31,0.13-0.63,0.19-0.96,0.19c-0.29,0-0.57-0.05-0.85-0.15c-0.28-0.1-0.53-0.25-0.76-0.44c-0.3-0.25-0.53-0.54-0.68-0.88
			c-0.16-0.34-0.24-0.71-0.24-1.1c0-0.35,0.06-0.69,0.19-1c0.12-0.31,0.31-0.59,0.55-0.83c0.24-0.24,0.51-0.43,0.83-0.56
			c0.31-0.13,0.64-0.2,0.97-0.2c0.33,0,0.65,0.07,0.96,0.2c0.31,0.13,0.59,0.32,0.83,0.56c0.24,0.24,0.42,0.52,0.55,0.83
			C187.86,31.3,187.92,31.63,187.92,31.98z M185.4,33.62c0.43,0,0.78-0.16,1.06-0.47c0.28-0.31,0.42-0.7,0.42-1.17
			c0-0.47-0.14-0.86-0.42-1.17s-0.63-0.48-1.06-0.48c-0.43,0-0.78,0.16-1.07,0.47c-0.28,0.32-0.42,0.71-0.42,1.18
			c0,0.47,0.14,0.87,0.42,1.18C184.61,33.47,184.96,33.62,185.4,33.62z"/>
	</g>
	<g>
		<path d="M136.1,39.05l-0.69,0.69c-0.47-0.52-0.99-0.78-1.58-0.78c-0.49,0-0.91,0.18-1.25,0.53c-0.34,0.35-0.51,0.79-0.51,1.31
			c0,0.36,0.07,0.68,0.22,0.96c0.15,0.28,0.36,0.5,0.63,0.66c0.27,0.16,0.58,0.24,0.91,0.24c0.28,0,0.55-0.06,0.78-0.17
			c0.24-0.11,0.5-0.32,0.78-0.61l0.67,0.73c-0.38,0.39-0.74,0.66-1.08,0.81c-0.34,0.15-0.73,0.23-1.16,0.23
			c-0.8,0-1.46-0.27-1.97-0.8c-0.51-0.54-0.77-1.22-0.77-2.06c0-0.54,0.12-1.02,0.35-1.44c0.23-0.42,0.57-0.76,1-1.02
			c0.43-0.26,0.9-0.38,1.4-0.38c0.43,0,0.84,0.09,1.23,0.28C135.47,38.43,135.81,38.7,136.1,39.05z"/>
		<path d="M142.58,37.95c0.73,0,1.36,0.28,1.88,0.83c0.53,0.56,0.79,1.23,0.79,2.03c0,0.79-0.26,1.46-0.78,2.01
			c-0.52,0.55-1.15,0.82-1.89,0.82c-0.77,0-1.42-0.28-1.93-0.85c-0.51-0.56-0.77-1.23-0.77-2.01c0-0.52,0.12-1,0.36-1.43
			c0.24-0.44,0.57-0.78,0.98-1.04C141.65,38.08,142.1,37.95,142.58,37.95z M142.57,38.97c-0.48,0-0.88,0.17-1.2,0.52
			c-0.33,0.35-0.49,0.79-0.49,1.33c0,0.6,0.2,1.08,0.61,1.43c0.32,0.27,0.68,0.41,1.09,0.41c0.47,0,0.86-0.18,1.19-0.53
			c0.33-0.35,0.49-0.79,0.49-1.31c0-0.52-0.17-0.95-0.49-1.31C143.44,39.14,143.04,38.97,142.57,38.97z"/>
		<path d="M149.43,38.09h1.04c0.57,0,0.98,0.05,1.22,0.16c0.24,0.11,0.44,0.28,0.58,0.53c0.15,0.25,0.22,0.54,0.22,0.88
			c0,0.36-0.08,0.66-0.24,0.9c-0.16,0.24-0.41,0.42-0.73,0.54l1.22,2.41h-1.07l-1.16-2.3h-0.09v2.3h-0.98V38.09z M150.41,40.21h0.31
			c0.31,0,0.53-0.04,0.64-0.13c0.12-0.09,0.18-0.23,0.18-0.43c0-0.12-0.03-0.22-0.09-0.31c-0.06-0.09-0.14-0.15-0.23-0.19
			c-0.1-0.04-0.28-0.06-0.54-0.06h-0.27V40.21z"/>
		<path d="M156.71,38.09h1.04c0.56,0,0.97,0.05,1.22,0.16c0.25,0.11,0.45,0.29,0.59,0.53c0.14,0.24,0.22,0.54,0.22,0.88
			c0,0.38-0.09,0.69-0.28,0.95c-0.19,0.25-0.44,0.43-0.77,0.52c-0.19,0.06-0.53,0.08-1.03,0.08v2.3h-0.98V38.09z M157.69,40.21h0.31
			c0.25,0,0.42-0.02,0.51-0.06c0.1-0.04,0.17-0.1,0.23-0.18c0.05-0.09,0.08-0.19,0.08-0.31c0-0.21-0.08-0.36-0.23-0.46
			c-0.11-0.07-0.32-0.11-0.62-0.11h-0.28V40.21z"/>
		<path d="M166.36,37.95c0.73,0,1.36,0.28,1.88,0.83c0.53,0.56,0.79,1.23,0.79,2.03c0,0.79-0.26,1.46-0.78,2.01
			c-0.52,0.55-1.15,0.82-1.89,0.82c-0.77,0-1.42-0.28-1.93-0.85c-0.51-0.56-0.77-1.23-0.77-2.01c0-0.52,0.12-1,0.36-1.43
			c0.24-0.44,0.57-0.78,0.98-1.04C165.43,38.08,165.88,37.95,166.36,37.95z M166.35,38.97c-0.48,0-0.88,0.17-1.2,0.52
			c-0.33,0.35-0.49,0.79-0.49,1.33c0,0.6,0.2,1.08,0.61,1.43c0.32,0.27,0.68,0.41,1.09,0.41c0.47,0,0.86-0.18,1.19-0.53
			c0.33-0.35,0.49-0.79,0.49-1.31c0-0.52-0.16-0.95-0.49-1.31C167.22,39.14,166.82,38.97,166.35,38.97z"/>
		<path d="M173.21,38.09h1.04c0.57,0,0.98,0.05,1.22,0.16c0.24,0.11,0.44,0.28,0.58,0.53c0.15,0.25,0.22,0.54,0.22,0.88
			c0,0.36-0.08,0.66-0.24,0.9c-0.16,0.24-0.41,0.42-0.73,0.54l1.22,2.41h-1.07l-1.16-2.3h-0.09v2.3h-0.98V38.09z M174.19,40.21h0.31
			c0.31,0,0.53-0.04,0.64-0.13c0.12-0.09,0.18-0.23,0.18-0.43c0-0.12-0.03-0.22-0.09-0.31c-0.06-0.09-0.14-0.15-0.23-0.19
			c-0.1-0.04-0.28-0.06-0.54-0.06h-0.27V40.21z"/>
		<path d="M182.07,38.09h1l1.98,5.43h-1.02l-0.4-1.12h-2.1l-0.42,1.12h-1.02L182.07,38.09z M182.57,39.53l-0.69,1.86h1.38
			L182.57,39.53z"/>
		<path d="M193.74,39.05l-0.69,0.69c-0.47-0.52-0.99-0.78-1.58-0.78c-0.49,0-0.91,0.18-1.25,0.53c-0.34,0.35-0.51,0.79-0.51,1.31
			c0,0.36,0.07,0.68,0.22,0.96s0.36,0.5,0.63,0.66c0.27,0.16,0.58,0.24,0.91,0.24c0.28,0,0.55-0.06,0.78-0.17
			c0.24-0.11,0.49-0.32,0.78-0.61l0.67,0.73c-0.38,0.39-0.74,0.66-1.08,0.81c-0.34,0.15-0.73,0.23-1.16,0.23
			c-0.8,0-1.46-0.27-1.97-0.8c-0.51-0.54-0.77-1.22-0.77-2.06c0-0.54,0.12-1.02,0.35-1.44c0.23-0.42,0.57-0.76,1-1.02
			c0.43-0.26,0.9-0.38,1.4-0.38c0.43,0,0.83,0.09,1.23,0.28C193.11,38.43,193.45,38.7,193.74,39.05z"/>
		<path d="M197.71,38.09h0.97v5.43h-0.97V38.09z"/>
		<path d="M205.42,37.95c0.73,0,1.36,0.28,1.88,0.83c0.53,0.56,0.79,1.23,0.79,2.03c0,0.79-0.26,1.46-0.78,2.01
			c-0.52,0.55-1.15,0.82-1.89,0.82c-0.77,0-1.42-0.28-1.93-0.85c-0.51-0.56-0.77-1.23-0.77-2.01c0-0.52,0.12-1,0.36-1.43
			c0.24-0.44,0.57-0.78,0.98-1.04C204.48,38.08,204.93,37.95,205.42,37.95z M205.4,38.97c-0.48,0-0.88,0.17-1.2,0.52
			c-0.33,0.35-0.49,0.79-0.49,1.33c0,0.6,0.2,1.08,0.61,1.43c0.32,0.27,0.68,0.41,1.09,0.41c0.47,0,0.86-0.18,1.19-0.53
			c0.33-0.35,0.49-0.79,0.49-1.31c0-0.52-0.17-0.95-0.49-1.31C206.28,39.14,205.88,38.97,205.4,38.97z M205.59,36.22h1.13
			l-1.28,1.45h-0.69L205.59,36.22z"/>
		<path d="M212.2,38.09h0.94l2.21,3.57v-3.57h0.98v5.43h-0.94l-2.2-3.56v3.56h-0.98V38.09z"/>
	</g>
	<g>
		<g>
			<polyline points="108.92,18.83 114.91,18.83 119.44,10.21 113.79,10.21 108.92,18.83 108.92,18.83 			"/>
		</g>
		<g>
			<path d="M127.21,29.25l-4.57,4.47c-3.11-3.37-6.61-5.05-10.5-5.05c-3.28,0-6.05,1.15-8.3,3.45c-2.25,2.3-3.37,5.13-3.37,8.5
				c0,2.35,0.5,4.43,1.49,6.25c1,1.82,2.4,3.25,4.22,4.29c1.82,1.04,3.84,1.56,6.07,1.56c1.9,0,3.63-0.36,5.2-1.09
				c1.57-0.73,3.3-2.05,5.18-3.96l4.43,4.74c-2.54,2.54-4.94,4.3-7.19,5.28c-2.26,0.98-4.83,1.47-7.73,1.47
				c-5.34,0-9.71-1.73-13.11-5.2c-3.4-3.47-5.1-7.91-5.1-13.34c0-3.51,0.77-6.63,2.32-9.35c1.55-2.73,3.77-4.92,6.66-6.58
				c2.89-1.66,6-2.49,9.33-2.49c2.83,0,5.56,0.61,8.19,1.84C123.05,25.25,125.31,26.99,127.21,29.25z"/>
		</g>
		<g>
			<polygon points="119.44,10.21 114.91,18.83 108.92,18.83 			"/>
		</g>
		<g>
			<path d="M113.34,10.21h5.39c0.33,0,0.54,0.35,0.39,0.64l-4.07,7.74c-0.08,0.14-0.22,0.23-0.39,0.23h-5.03
				c-0.32,0-0.53-0.34-0.39-0.63l3.71-7.74C113.01,10.31,113.17,10.21,113.34,10.21z"/>
		</g>
		<g>
			<path d="M113.79,14.52"/>
		</g>
		<g>
			<polygon points="108.92,18.83 113.45,10.21 119.44,10.21 			"/>
		</g>
	</g>
</g>
</svg>
