<svg id="Capa_1" data-name="Capa 1" xmlns="http://www.w3.org/2000/svg" viewBox="0 0 283.21 150.35"><defs><style>.cls-1{fill:#e73345;}.cls-2{fill:#fff;}</style></defs><path class="cls-1" d="M-586.48-407.62c2,.39,4,.73,5.91,1.2a41.45,41.45,0,0,1,31.19,34.51c1.77,13.57-2.13,25.45-11.74,35.22a39.79,39.79,0,0,1-25.07,12,41.54,41.54,0,0,1-44.73-30.66,39.26,39.26,0,0,1-1.12-6c0-.26.08-.57-.23-.75V-370a4.77,4.77,0,0,0,.41-2.17,41.64,41.64,0,0,1,31.3-34.28c2-.5,4.13-.67,6.17-1.15Z" transform="translate(632.27 407.62)"/><path class="cls-1" d="M-387-407.62c2,.48,4.13.65,6.18,1.15a41.69,41.69,0,0,1,31.42,35.15,41.5,41.5,0,0,1-34.19,46.24c-13.49,2.29-25.56-1.24-35.6-10.61-9.83-9.17-14.07-20.69-13.07-34.05,1.41-18.87,16.49-34.79,35.29-37.46a7.56,7.56,0,0,0,2.54-.42Z" transform="translate(632.27 407.62)"/><path class="cls-1" d="M-487-407.62c2,.48,4.13.66,6.18,1.14a41.67,41.67,0,0,1,31.26,33.93,41.57,41.57,0,0,1-31.37,47c-23.5,5.78-47.37-10.14-50.94-34a41.54,41.54,0,0,1,30.45-46.71,36.16,36.16,0,0,1,6.35-1.15c.23,0,.5.07.64-.2Z" transform="translate(632.27 407.62)"/><path class="cls-2" d="M-623.19-272.76h.12c1.12,0,2.36-.3,3.32.09s.6,1.86,1,2.81a8.83,8.83,0,0,0,6.09,5.27,12.89,12.89,0,0,0,9.43-.69A5.57,5.57,0,0,0-600-270.7c0-2.36-1.39-3.81-3.45-4.72-2.43-1.07-5.06-1.33-7.62-1.9a53.26,53.26,0,0,1-7.15-1.86c-4.19-1.55-7.16-4.2-7.79-8.81-.69-5,.83-9.22,5-12.3a18.07,18.07,0,0,1,10.87-3.41c4.64-.05,8.95,1,12.56,4a13.21,13.21,0,0,1,4.68,9.35c.06.7-.16.8-.76.79-2.07,0-4.15,0-6.23,0-.58,0-.74-.19-.82-.71-1.17-7.33-10.94-8.5-15.34-5-2.92,2.32-3.31,7.24,1.2,9,2.57,1,5.32,1.31,8,1.94a57.32,57.32,0,0,1,7.14,1.89c9.92,3.67,9,15,4.15,20a16.61,16.61,0,0,1-10.29,4.8c-5.5.62-10.77-.08-15.37-3.46a13.94,13.94,0,0,1-5.85-11.12c0-.5.09-.61.54-.6C-625.43-272.75-624.31-272.76-623.19-272.76Z" transform="translate(632.27 407.62)"/><path class="cls-2" d="M-567.92-272.69c-3.75,0-7.51.05-11.26,0-1.19,0-1.29.34-1.07,1.34,1.53,7,7.57,8.62,12.59,6.91a5.81,5.81,0,0,0,3.63-3.42,1.15,1.15,0,0,1,1.29-.88c2,0,4,0,6,0,.85,0,1,.21.77,1a12.21,12.21,0,0,1-6.84,8.44,18.26,18.26,0,0,1-16.27.25c-5.73-2.67-8.44-7.55-9-13.66a18,18,0,0,1,2.3-11.28c3.55-5.82,9-8.05,15.53-7.7,9.16.47,15.31,7.39,14.95,16.58-.1,2.44-.1,2.44-2.52,2.44Zm-3.69-5.65c2.55,0,5.1,0,7.66,0,.65,0,.82-.13.6-.82a9.85,9.85,0,0,0-2.08-3.84c-4.26-4.45-12.23-2.42-14.38,3.63-.34.95-.06,1.05.78,1C-576.55-278.36-574.08-278.34-571.61-278.34Z" transform="translate(632.27 407.62)"/><path class="cls-2" d="M-394.91-262.21c-4.45,5.55-12.58,5.72-17.61,3.6a8.73,8.73,0,0,1-5.6-8.42c-.1-3.87,1.37-7,4.92-8.89a16.75,16.75,0,0,1,7.82-1.86c2.68-.05,5.35-.07,8,0,1.12,0,1.48-.21,1.45-1.4-.1-3.3-1.65-5.49-4.73-6.36-3.29-.94-7.12.19-8.42,2.83a2.55,2.55,0,0,1-2.92,1.57c-1.56-.09-3.12-.05-4.67,0-.63,0-.7-.17-.6-.74a10.41,10.41,0,0,1,6.29-8.15,19,19,0,0,1,14.43-.74,11.46,11.46,0,0,1,7.83,10.67c.09,4.23.08,8.46.07,12.68,0,1.66.65,3.16,2.78,3.05.52,0,.71.17.7.68,0,1.68,0,3.36,0,5,0,.43-.11.68-.6.68a24.66,24.66,0,0,1-5.36-.35A4.88,4.88,0,0,1-394.91-262.21Zm-9.73-.9c5.53,0,8.8-3.24,8.72-8.29,0-.71-.16-1-.92-1-2.83,0-5.66,0-8.49,0a5.79,5.79,0,0,0-3.37,1,4.37,4.37,0,0,0,.54,7.49A7.25,7.25,0,0,0-404.64-263.11Z" transform="translate(632.27 407.62)"/><path class="cls-2" d="M-491.51-261.56c-4.14,4.26-9,4.89-14.2,3.63-5-1.19-7.33-4.87-8.33-9.59a26.39,26.39,0,0,1-.5-5.47c0-5.63,0-11.26,0-16.89,0-1.11.33-1.33,1.34-1.28a47.3,47.3,0,0,0,4.91,0c1.05-.07,1.23.31,1.22,1.26-.05,5.31,0,10.62,0,15.93a18.15,18.15,0,0,0,.63,5.08c.79,2.74,2.5,4.55,5.37,4.95,3,.41,5.73-.35,7.58-3a12.43,12.43,0,0,0,2-7.26c0-5.23.06-10.46,0-15.69,0-1.11.33-1.32,1.34-1.27,1.71.08,3.43.05,5.15,0,.69,0,1,.11,1,.9q0,15.69,0,31.38c0,.65-.13.93-.85.91-1.92,0-3.84,0-5.75,0-.64,0-.85-.2-.81-.83C-491.48-259.62-491.51-260.46-491.51-261.56Z" transform="translate(632.27 407.62)"/><path class="cls-2" d="M-358.56-280.9c-.24,0-.48,0-.71,0-1.61.13-2.79,0-3.63-1.91-1-2.42-3.55-3-6.07-3a7.12,7.12,0,0,0-4,1.05,3.49,3.49,0,0,0-1.79,3.51c.33,1.46,1.49,2,2.79,2.25,2.92.59,5.86,1.11,8.79,1.69a14,14,0,0,1,5.58,2.3c4.39,3.18,4.44,10.54.11,14.23a14.08,14.08,0,0,1-7.72,3.2,18.86,18.86,0,0,1-11.39-1.77,11.43,11.43,0,0,1-6.06-8.53c-.11-.67-.09-1.11.84-1.07,1.84.07,3.68,0,5.51,0,.61,0,.77.22.93.76a6.26,6.26,0,0,0,5,4.56,10.37,10.37,0,0,0,5.89-.29,3.74,3.74,0,0,0,2.63-2.7c.44-2-.27-3.24-2.27-4a39.44,39.44,0,0,0-6.64-1.42,41.05,41.05,0,0,1-5.12-1.13c-3-1-5.37-2.71-6-6a9.16,9.16,0,0,1,3.1-9.15c3.54-3.14,7.83-3.74,12.33-3.33a12.73,12.73,0,0,1,9.84,5.36,10,10,0,0,1,1.75,4.64c.06.55-.05.79-.68.76C-356.56-280.94-357.56-280.9-358.56-280.9Z" transform="translate(632.27 407.62)"/><path class="cls-2" d="M-522.47-279a5.77,5.77,0,0,0-.72,0c-1.94.23-3.17-.09-4.17-2.29-1.94-4.31-8.49-5.22-12.57-2.13-5.3,4-5.14,14,.28,17.85,3.87,2.73,9.65,1.91,12.08-1.72a6.15,6.15,0,0,0,1-2.27c.13-.63.42-.75,1-.75,2,0,3.92.08,5.87,0,1.13-.05,1.25.37,1,1.3-1.58,6-5.39,9.9-11.48,11.16-6.44,1.33-12.33.13-16.94-4.92a17,17,0,0,1-4.24-13.15c.41-6,3-10.78,8.34-13.77,7-3.88,16.76-2.31,21.6,3.43a13.08,13.08,0,0,1,2.79,6c.18.9,0,1.42-1.07,1.29A25.19,25.19,0,0,0-522.47-279Z" transform="translate(632.27 407.62)"/><path class="cls-2" d="M-430-276.39c0,2.28,0,4.55,0,6.83,0,3.33,1.68,5,5,5,1,0,1.92,0,2.88,0,.6,0,.85.12.83.78,0,1.68,0,3.35,0,5,0,.41.06.8-.58.78-2.86-.06-5.75.2-8.56-.64a9.28,9.28,0,0,1-6.92-8.49c-.4-5.42-.14-10.85-.14-16.28,0-1.2-.34-1.48-1.46-1.38s-2.15,0-3.23,0c-.72,0-1.07-.09-1-.95.07-1.55,0-3.11,0-4.67,0-.62.17-.83.81-.81,1.32,0,2.64,0,3.95,0,.78,0,.93-.24.91-.95,0-2.39,0-4.79,0-7.18,0-.86.25-1.08,1.08-1.06,1.83.06,3.67.07,5.51,0,.83,0,1,.28,1,1,0,2.39,0,4.79,0,7.18,0,.81.24,1,1,1,2.11-.05,4.23,0,6.35,0,.68,0,.89.21.87.88,0,1.56,0,3.12,0,4.67,0,.67-.16.89-.85.88-2.12,0-4.24,0-6.35,0-.87,0-1,.26-1,1.07C-429.95-281.26-430-278.82-430-276.39Z" transform="translate(632.27 407.62)"/><path class="cls-2" d="M-470.56-287c2.54-3.6,6.29-4.19,10.28-4.18.62,0,.83.2.82.83,0,1.79,0,3.59,0,5.38,0,.7-.25.87-.9.87a16.68,16.68,0,0,0-4.27.45,7.5,7.5,0,0,0-6.05,7.32c-.32,4.82-.09,9.65-.17,14.47,0,1.26.55,2.95-.25,3.67s-2.36.17-3.59.18a24,24,0,0,0-2.4,0c-1.07.13-1.22-.36-1.21-1.29,0-6.54,0-13.08,0-19.62,0-3.75,0-7.5,0-11.25,0-.76.17-1.06,1-1,1.84.06,3.68.07,5.51,0,.85,0,1,.29,1,1-.05,1,0,2,0,3.06Z" transform="translate(632.27 407.62)"/><path class="cls-2" d="M-454.85-274.56c0-5.11,0-10.22,0-15.33,0-1.11.32-1.32,1.33-1.27,1.71.08,3.43.05,5.15,0,.69,0,1,.11,1,.9q0,15.69,0,31.38c0,.8-.29.92-1,.91-1.83,0-3.68-.06-5.51,0-.86,0-1-.31-.95-1C-454.84-264.18-454.85-269.37-454.85-274.56Z" transform="translate(632.27 407.62)"/><path class="cls-2" d="M-455.79-299.79a4.45,4.45,0,0,1,4.62-4.57,4.55,4.55,0,0,1,4.64,4.6,4.57,4.57,0,0,1-4.67,4.7A4.49,4.49,0,0,1-455.79-299.79Z" transform="translate(632.27 407.62)"/></svg>